<?xml version="1.0" encoding="UTF-8" standalone="no"?>
<!-- Uploaded to: SVG Repo, www.svgrepo.com, Generator: SVG Repo Mixer Tools -->

<svg
   width="800px"
   height="800px"
   viewBox="0 0 24 24"
   fill="none"
   version="1.1"
   id="svg2"
   sodipodi:docname="eye-svgrepo-com.svg"
   inkscape:version="1.4.3 (0d15f75042, 2025-12-25)"
   xmlns:inkscape="http://www.inkscape.org/namespaces/inkscape"
   xmlns:sodipodi="http://sodipodi.sourceforge.net/DTD/sodipodi-0.dtd"
   xmlns="http://www.w3.org/2000/svg"
   xmlns:svg="http://www.w3.org/2000/svg">
  <defs
     id="defs2" />
  <sodipodi:namedview
     id="namedview2"
     pagecolor="#505050"
     bordercolor="#eeeeee"
     borderopacity="1"
     inkscape:showpageshadow="0"
     inkscape:pageopacity="0"
     inkscape:pagecheckerboard="0"
     inkscape:deskcolor="#505050"
     inkscape:zoom="0.524375"
     inkscape:cx="610.2503"
     inkscape:cy="567.34207"
     inkscape:window-width="1920"
     inkscape:window-height="1052"
     inkscape:window-x="0"
     inkscape:window-y="0"
     inkscape:window-maximized="1"
     inkscape:current-layer="svg2" />
  <path
     fill-rule="evenodd"
     clip-rule="evenodd"
     d="M8 12C8 9.79086 9.79086 8 12 8C14.2091 8 16 9.79086 16 12C16 14.2091 14.2091 16 12 16C9.79086 16 8 14.2091 8 12ZM6.24234 6.34315C9.36653 3.21895 14.4319 3.21895 17.556 6.34315L19.7239 8.511C20.3508 9.13781 20.8909 9.67788 21.2653 10.1685C21.6665 10.6944 21.9703 11.2792 21.9703 12C21.9703 12.7208 21.6665 13.3056 21.2653 13.8315C20.8909 14.3221 20.3508 14.8622 19.7239 15.489L17.556 17.6569C14.4319 20.781 9.36653 20.781 6.24234 17.6569L4.07447 15.489C3.44759 14.8622 2.90746 14.3221 2.5331 13.8315C2.1319 13.3056 1.82812 12.7208 1.82812 12C1.82812 11.2792 2.1319 10.6944 2.5331 10.1685C2.90746 9.67788 3.44759 9.13781 4.07447 8.51101C4.08994 8.49555 4.10545 8.48003 4.12102 8.46447L6.24234 6.34315Z"
     fill="#323232"
     id="path1"
     style="fill:#ffffff" />
  <path
     fill-rule="evenodd"
     clip-rule="evenodd"
     d="M12 10C10.8954 10 10 10.8954 10 12C10 13.1046 10.8954 14 12 14C13.1046 14 14 13.1046 14 12C14 10.8954 13.1046 10 12 10Z"
     fill="#323232"
     id="path2"
     style="fill:#ffffff" />
</svg>
